{"accessors":[{"bufferView":0,"componentType":5123,"count":20760,"max":[4481],"min":[0],"type":"SCALAR"},{"bufferView":1,"componentType":5126,"count":4482,"max":[0.3866192698478699,0.08021152019500732,0.004561689216643572],"min":[-0.38661929965019226,-0.17356990277767181,-0.5890734791755676],"type":"VEC3"},{"bufferView":2,"componentType":5126,"count":4482,"max":[0.9999768733978271,0.9999032020568848,1.0],"min":[-0.9999768733978271,-0.9998118877410889,-1.0],"type":"VEC3"},{"bufferView":3,"componentType":5126,"count":4482,"max":[0.9999997615814209,1.0000001192092896],"min":[-1.7217992587248432e-09,0.12673181295394897],"type":"VEC2"},{"bufferView":4,"componentType":5123,"count":84261,"max":[18079],"min":[0],"type":"SCALAR"},{"bufferView":5,"componentType":5126,"count":18080,"max":[0.38703346252441406,0.28913766145706177,0.39318838715553284],"min":[-0.4114772081375122,-0.5555875897407532,-0.4705442488193512],"type":"VEC3"},{"bufferView":6,"componentType":5126,"count":18080,"max":[0.9999662041664124,0.9997883439064026,0.9999938607215881],"min":[-0.9999423027038574,-0.9999195337295532,-0.9999516606330872],"type":"VEC3"},{"bufferView":7,"componentType":5126,"count":18080,"max":[1.0,0.9999839663505554],"min":[5.396408596425317e-05,0.004255354404449463],"type":"VEC2"},{"bufferView":8,"componentType":5123,"count":13077,"max":[3245],"min":[0],"type":"SCALAR"},{"bufferView":9,"componentType":5126,"count":3246,"max":[0.4029659926891327,0.43542298674583435,0.30725592374801636],"min":[-0.4051399827003479,-0.4331180155277252,-0.7883241772651672],"type":"VEC3"},{"bufferView":10,"componentType":5126,"count":3246,"max":[0.9995883703231812,0.9999702572822571,0.9996838569641113],"min":[-0.9995883703231812,-1.0,-0.9999755024909973],"type":"VEC3"},{"bufferView":11,"componentType":5126,"count":3246,"max":[0.9964349865913391,0.9991539716720581],"min":[0.012384999543428421,0.012430012226104736],"type":"VEC2"},{"bufferView":12,"componentType":5123,"count":139530,"max":[29628],"min":[0],"type":"SCALAR"},{"bufferView":13,"componentType":5126,"count":29629,"max":[0.6813828349113464,1.2544329166412354,0.3558368682861328],"min":[-0.6808658242225647,-0.4889264702796936,-0.34458014369010925],"type":"VEC3"},{"bufferView":14,"componentType":5126,"count":29629,"max":[0.9996898770332336,0.9998152852058411,0.9999974966049194],"min":[-0.9996896386146545,-0.9999996423721313,-0.9999937415122986],"type":"VEC3"},{"bufferView":15,"componentType":5126,"count":29629,"max":[0.9955511093139648,1.0],"min":[0.0,0.000308990478515625],"type":"VEC2"},{"bufferView":16,"componentType":5123,"count":6912,"max":[1273],"min":[0],"type":"SCALAR"},{"bufferView":17,"componentType":5126,"count":1274,"max":[0.026640398427844048,0.07697910815477371,0.2598223090171814],"min":[0.00684735644608736,0.05757187306880951,0.2482829988002777],"type":"VEC3"},{"bufferView":18,"componentType":5126,"count":1274,"max":[0.9782865047454834,0.9782105088233948,0.9994614124298096],"min":[-0.9750666618347168,-0.9782176613807678,-0.9994611740112305],"type":"VEC3"},{"bufferView":19,"componentType":5126,"count":1274,"max":[0.3221631944179535,0.38645726442337036],"min":[0.3081541061401367,0.37283778190612793],"type":"VEC2"},{"bufferView":20,"componentType":5123,"count":6912,"max":[1273],"min":[0],"type":"SCALAR"},{"bufferView":21,"componentType":5126,"count":1274,"max":[0.027807915583252907,-0.1896246075630188,0.31786587834358215],"min":[0.0066679697483778,-0.20968352258205414,0.3089759945869446],"type":"VEC3"},{"bufferView":22,"componentType":5126,"count":1274,"max":[0.9871507883071899,0.9845237731933594,0.999702513217926],"min":[-0.9858819842338562,-0.9876676201820374,-0.9997021555900574],"type":"VEC3"},{"bufferView":23,"componentType":5126,"count":1274,"max":[0.3221631944179535,0.38645726442337036],"min":[0.3081541061401367,0.37283778190612793],"type":"VEC2"}],"asset":{"generator":"Verge3D for Blender v4.7.1","version":"2.0"},"bufferViews":[{"buffer":0,"byteLength":41520,"byteOffset":0,"target":34963},{"buffer":0,"byteLength":53784,"byteOffset":41520,"target":34962},{"buffer":0,"byteLength":53784,"byteOffset":95304,"target":34962},{"buffer":0,"byteLength":35856,"byteOffset":149088,"target":34962},{"buffer":0,"byteLength":168522,"byteOffset":184944,"target":34963},{"buffer":0,"byteLength":216960,"byteOffset":353468,"target":34962},{"buffer":0,"byteLength":216960,"byteOffset":570428,"target":34962},{"buffer":0,"byteLength":144640,"byteOffset":787388,"target":34962},{"buffer":0,"byteLength":26154,"byteOffset":932028,"target":34963},{"buffer":0,"byteLength":38952,"byteOffset":958184,"target":34962},{"buffer":0,"byteLength":38952,"byteOffset":997136,"target":34962},{"buffer":0,"byteLength":25968,"byteOffset":1036088,"target":34962},{"buffer":0,"byteLength":279060,"byteOffset":1062056,"target":34963},{"buffer":0,"byteLength":355548,"byteOffset":1341116,"target":34962},{"buffer":0,"byteLength":355548,"byteOffset":1696664,"target":34962},{"buffer":0,"byteLength":237032,"byteOffset":2052212,"target":34962},{"buffer":0,"byteLength":13824,"byteOffset":2289244,"target":34963},{"buffer":0,"byteLength":15288,"byteOffset":2303068,"target":34962},{"buffer":0,"byteLength":15288,"byteOffset":2318356,"target":34962},{"buffer":0,"byteLength":10192,"byteOffset":2333644,"target":34962},{"buffer":0,"byteLength":13824,"byteOffset":2343836,"target":34963},{"buffer":0,"byteLength":15288,"byteOffset":2357660,"target":34962},{"buffer":0,"byteLength":15288,"byteOffset":2372948,"target":34962},{"buffer":0,"byteLength":10192,"byteOffset":2388236,"target":34962}],"buffers":[{"byteLength":2398428,"uri":"3D_ai_agent.bin"}],"cameras":[{"extensions":{"S8S_v3d_camera":{"controls":"ORBIT","enablePan":true,"moveSpeed":1.0,"orbitMaxAzimuthAngle":0.5235987901687622,"orbitMaxDistance":20.0,"orbitMaxPolarAngle":1.919862151145935,"orbitMaxZoom":100.0,"orbitMinAzimuthAngle":-0.5235987901687622,"orbitMinDistance":5.0,"orbitMinPolarAngle":1.2217304706573486,"orbitMinZoom":0.009999999776482582,"orbitTarget":[0.0,0.0,-0.0],"rotateSpeed":1.0,"viewportFitInitialAspect":1.7777777777777777,"viewportFitType":"AUTO"}},"name":"Camera.001","perspective":{"aspectRatio":1.7777777777777777,"yfov":0.23885785854217248,"zfar":100.0,"znear":0.10000000149011612},"type":"perspective"}],"extensionsUsed":["S8S_v3d_texture","S8S_v3d_materials","S8S_v3d_camera","S8S_v3d_mesh","S8S_v3d_node","S8S_v3d_scene"],"images":[{"uri":"Hair.jpg"},{"uri":"Glasses.jpg"},{"uri":"Roughness.jpg"},{"uri":"Face.jpg"},{"uri":"Clothes2.jpg"},{"uri":"environment.hdr"}],"materials":[{"alphaMode":"OPAQUE","extensions":{"S8S_v3d_materials":{"gtaoVisible":true,"materialIndex":0,"nodeGraph":{"edges":[{"fromNode":0,"fromOutput":0,"toInput":0,"toNode":1},{"fromNode":2,"fromOutput":0,"toInput":0,"toNode":0}],"nodes":[{"inputs":[[0.051821671426296234,0.022587426006793976,0.017021507024765015,1.0],0.0,0.5,1.5,1.0,[0.0,0.0,0.0],0.0,[1.0,0.20000000298023224,0.10000000149011612],0.05000000074505806,1.399999976158142,0.0,0.5,[1.0,1.0,1.0,1.0],0.0,0.0,[0.0,0.0,0.0],0.0,0.0,0.029999999329447746,1.5,[1.0,1.0,1.0,1.0],[0.0,0.0,0.0],0.0,0.5,[1.0,1.0,1.0,1.0],[1.0,1.0,1.0,1.0],0.0,0.0,1.3300000429153442],"is_active_output":false,"name":"Principled BSDF","outputs":[[0,0,0,0]],"type":"BSDF_PRINCIPLED_BL"},{"inputs":[[0,0,0,0],[0,0,0,0],[0.0,0.0,0.0],0.0],"is_active_output":true,"name":"Material Output","outputs":[],"type":"OUTPUT_MATERIAL_BL"},{"alphaMode":"STRAIGHT","inputs":[[0.0,0.0,0.0]],"is_active_output":false,"name":"Image Texture","outputs":[[0.800000011920929,0.800000011920929,0.800000011920929,1.0],0.0],"projection":"FLAT","projectionBlend":0.0,"texture":0,"type":"TEX_IMAGE_BL"}]}}},"name":"Material.003"},{"alphaMode":"OPAQUE","extensions":{"S8S_v3d_materials":{"gtaoVisible":true,"materialIndex":0,"nodeGraph":{"edges":[{"fromNode":0,"fromOutput":0,"toInput":0,"toNode":1},{"fromNode":2,"fromOutput":0,"toInput":0,"toNode":0}],"nodes":[{"inputs":[[0.05599989369511604,0.011022351682186127,0.0053094555623829365,1.0],0.30000001192092896,0.8211009502410889,1.5,1.0,[0.0,0.0,0.0],0.0,[1.0,0.20000000298023224,0.10000000149011612],0.05000000074505806,1.399999976158142,0.0,0.5,[1.0,1.0,1.0,1.0],0.0,0.0,[0.0,0.0,0.0],0.0,0.0,0.029999999329447746,1.5,[1.0,1.0,1.0,1.0],[0.0,0.0,0.0],0.0,0.5,[1.0,1.0,1.0,1.0],[1.0,1.0,1.0,1.0],0.0,0.0,1.3300000429153442],"is_active_output":false,"name":"Principled BSDF","outputs":[[0,0,0,0]],"type":"BSDF_PRINCIPLED_BL"},{"inputs":[[0,0,0,0],[0,0,0,0],[0.0,0.0,0.0],0.0],"is_active_output":true,"name":"Material Output","outputs":[],"type":"OUTPUT_MATERIAL_BL"},{"alphaMode":"STRAIGHT","inputs":[[0.0,0.0,0.0]],"is_active_output":false,"name":"Image Texture","outputs":[[0.800000011920929,0.800000011920929,0.800000011920929,1.0],0.0],"projection":"FLAT","projectionBlend":0.0,"texture":1,"type":"TEX_IMAGE_BL"}]}}},"name":"Material.004"},{"alphaMode":"OPAQUE","extensions":{"S8S_v3d_materials":{"gtaoVisible":true,"materialIndex":0,"nodeGraph":{"edges":[{"fromNode":0,"fromOutput":0,"toInput":0,"toNode":1}],"nodes":[{"inputs":[[0.0,0.0,0.0,1.0],0.0,0.8593130111694336,1.5,1.0,[0.0,0.0,0.0],0.0,[1.0,0.20000000298023224,0.10000000149011612],0.05000000074505806,1.399999976158142,0.0,0.5,[1.0,1.0,1.0,1.0],0.0,0.0,[0.0,0.0,0.0],0.0,0.0,0.029999999329447746,1.5,[1.0,1.0,1.0,1.0],[0.0,0.0,0.0],0.0,0.5,[1.0,1.0,1.0,1.0],[1.0,1.0,1.0,1.0],0.0,0.0,1.3300000429153442],"is_active_output":false,"name":"Principled BSDF","outputs":[[0,0,0,0]],"type":"BSDF_PRINCIPLED_BL"},{"inputs":[[0,0,0,0],[0,0,0,0],[0.0,0.0,0.0],0.0],"is_active_output":true,"name":"Material Output","outputs":[],"type":"OUTPUT_MATERIAL_BL"}]}}},"name":"Material.005"},{"alphaMode":"OPAQUE","extensions":{"S8S_v3d_materials":{"gtaoVisible":true,"materialIndex":0,"nodeGraph":{"edges":[{"fromNode":0,"fromOutput":0,"toInput":0,"toNode":1}],"nodes":[{"inputs":[[0.0,0.0,0.0,1.0],0.0,0.8593130111694336,1.5,1.0,[0.0,0.0,0.0],0.0,[1.0,0.20000000298023224,0.10000000149011612],0.05000000074505806,1.399999976158142,0.0,0.5,[1.0,1.0,1.0,1.0],0.0,0.0,[0.0,0.0,0.0],0.0,0.0,0.029999999329447746,1.5,[1.0,1.0,1.0,1.0],[0.0,0.0,0.0],0.0,0.5,[1.0,1.0,1.0,1.0],[1.0,1.0,1.0,1.0],0.0,0.0,1.3300000429153442],"is_active_output":false,"name":"Principled BSDF","outputs":[[0,0,0,0]],"type":"BSDF_PRINCIPLED_BL"},{"inputs":[[0,0,0,0],[0,0,0,0],[0.0,0.0,0.0],0.0],"is_active_output":true,"name":"Material Output","outputs":[],"type":"OUTPUT_MATERIAL_BL"}]}}},"name":"Material.006"},{"alphaMode":"OPAQUE","extensions":{"S8S_v3d_materials":{"gtaoVisible":true,"materialIndex":0,"nodeGraph":{"edges":[{"fromNode":0,"fromOutput":0,"toInput":0,"toNode":1},{"fromNode":3,"fromOutput":0,"toInput":2,"toNode":0},{"fromNode":2,"fromOutput":0,"toInput":1,"toNode":3},{"fromNode":4,"fromOutput":0,"toInput":0,"toNode":0}],"nodes":[{"inputs":[[0.800000011920929,0.800000011920929,0.800000011920929,1.0],0.0,0.5,1.5,1.0,[0.0,0.0,0.0],0.0,[1.0,0.20000000298023224,0.10000000149011612],0.05000000074505806,1.399999976158142,0.0,0.5,[1.0,1.0,1.0,1.0],0.0,0.0,[0.0,0.0,0.0],0.0,0.0,0.029999999329447746,1.5,[1.0,1.0,1.0,1.0],[0.0,0.0,0.0],0.0,0.5,[1.0,1.0,1.0,1.0],[0.0,0.0,0.0,1.0],1.0,0.0,1.3300000429153442],"is_active_output":false,"name":"Principled BSDF","outputs":[[0,0,0,0]],"type":"BSDF_PRINCIPLED_BL"},{"inputs":[[0,0,0,0],[0,0,0,0],[0.0,0.0,0.0],0.0],"is_active_output":true,"name":"Material Output","outputs":[],"type":"OUTPUT_MATERIAL_BL"},{"alphaMode":"STRAIGHT","inputs":[[0.0,0.0,0.0]],"is_active_output":false,"name":"Image Texture.001","outputs":[[0.800000011920929,0.800000011920929,0.800000011920929,1.0],0.0],"projection":"FLAT","projectionBlend":0.0,"texture":2,"type":"TEX_IMAGE_BL"},{"inputs":[1.0,[0.0,0.0,0.0,1.0]],"is_active_output":false,"name":"Invert Color","outputs":[[0.800000011920929,0.800000011920929,0.800000011920929,1.0]],"type":"INVERT_BL"},{"alphaMode":"STRAIGHT","inputs":[[0.0,0.0,0.0]],"is_active_output":false,"name":"Image Texture.003","outputs":[[0.800000011920929,0.800000011920929,0.800000011920929,1.0],0.0],"projection":"FLAT","projectionBlend":0.0,"texture":3,"type":"TEX_IMAGE_BL"}]}}},"name":"Material.009"},{"alphaMode":"OPAQUE","extensions":{"S8S_v3d_materials":{"gtaoVisible":true,"materialIndex":0,"nodeGraph":{"edges":[{"fromNode":0,"fromOutput":0,"toInput":0,"toNode":1},{"fromNode":2,"fromOutput":0,"toInput":0,"toNode":0}],"nodes":[{"inputs":[[0.800000011920929,0.800000011920929,0.800000011920929,1.0],0.0,1.0,1.5,1.0,[0.0,0.0,0.0],0.0,[1.0,0.20000000298023224,0.10000000149011612],0.05000000074505806,1.399999976158142,0.0,0.5,[1.0,1.0,1.0,1.0],0.0,0.0,[0.0,0.0,0.0],0.0,0.0,0.029999999329447746,1.5,[1.0,1.0,1.0,1.0],[0.0,0.0,0.0],0.0,0.5,[1.0,1.0,1.0,1.0],[0.0,0.0,0.0,1.0],1.0,0.0,1.3300000429153442],"is_active_output":false,"name":"Principled BSDF","outputs":[[0,0,0,0]],"type":"BSDF_PRINCIPLED_BL"},{"inputs":[[0,0,0,0],[0,0,0,0],[0.0,0.0,0.0],0.0],"is_active_output":true,"name":"Material Output","outputs":[],"type":"OUTPUT_MATERIAL_BL"},{"alphaMode":"STRAIGHT","inputs":[[0.0,0.0,0.0]],"is_active_output":false,"name":"Image Texture.005","outputs":[[0.800000011920929,0.800000011920929,0.800000011920929,1.0],0.0],"projection":"FLAT","projectionBlend":0.0,"texture":4,"type":"TEX_IMAGE_BL"}]}}},"name":"Material_0.002"},{"alphaMode":"OPAQUE","extensions":{"S8S_v3d_materials":{"gtaoVisible":true,"materialIndex":0,"nodeGraph":{"edges":[{"fromNode":0,"fromOutput":0,"toInput":0,"toNode":1},{"fromNode":4,"fromOutput":0,"toInput":6,"toNode":2},{"fromNode":3,"fromOutput":0,"toInput":0,"toNode":2},{"fromNode":2,"fromOutput":2,"toInput":0,"toNode":0}],"nodes":[{"inputs":[[0.05087608844041824,0.05087608844041824,0.05087608844041824,1.0],1.0],"is_active_output":false,"name":"Background","outputs":[[0,0,0,0]],"type":"BACKGROUND_BL"},{"inputs":[[0,0,0,0],[0,0,0,0]],"is_active_output":true,"name":"World Output","outputs":[],"type":"OUTPUT_WORLD_BL"},{"blendType":"MIX","clampFactor":true,"clampResult":false,"dataType":"RGBA","factorMode":"UNIFORM","inputs":[0.5,[0.5,0.5,0.5],0.0,0.0,[0.0,0.0,0.0],[0.0,0.0,0.0],[0.5,0.5,0.5,1.0],[1.0,1.0,1.0,1.0],0,0],"is_active_output":false,"name":"Mix","outputs":[0.0,[0.0,0.0,0.0],[0.0,0.0,0.0,0.0],0],"type":"MIX_BL"},{"inputs":[],"is_active_output":false,"name":"Light Path","outputs":[0.0,0.0,0.0,0.0,0.0,0.0,0.0,0.0,0.0,0.0,0.0,0.0,0.0],"type":"LIGHT_PATH_BL"},{"inputs":[[0.0,0.0,0.0]],"is_active_output":false,"name":"Environment Texture","outputs":[[0.0,0.0,0.0,0.0]],"projection":"EQUIRECTANGULAR","texture":5,"type":"TEX_ENVIRONMENT_BL"}]}}},"name":"Verge3D_Environment_World"}],"meshes":[{"extensions":{"S8S_v3d_mesh":{"colorLayers":{},"uvLayers":{"UVMap":"TEXCOORD_0"}}},"name":"BézierCurve.009","primitives":[{"attributes":{"NORMAL":2,"POSITION":1,"TEXCOORD_0":3},"indices":0,"material":1,"mode":4}]},{"extensions":{"S8S_v3d_mesh":{"colorLayers":{},"uvLayers":{"UVMap":"TEXCOORD_0"}}},"name":"mesh.001","primitives":[{"attributes":{"NORMAL":6,"POSITION":5,"TEXCOORD_0":7},"indices":4,"material":0,"mode":4}]},{"extensions":{"S8S_v3d_mesh":{"colorLayers":{},"uvLayers":{"UVMap":"TEXCOORD_0"}}},"name":"Mesh1_Mesh1.073","primitives":[{"attributes":{"NORMAL":10,"POSITION":9,"TEXCOORD_0":11},"indices":8,"material":4,"mode":4}]},{"extensions":{"S8S_v3d_mesh":{"colorLayers":{},"uvLayers":{"UVMap":"TEXCOORD_0"}}},"name":"Mesh_0.012","primitives":[{"attributes":{"NORMAL":14,"POSITION":13,"TEXCOORD_0":15},"indices":12,"material":5,"mode":4},{"attributes":{"NORMAL":18,"POSITION":17,"TEXCOORD_0":19},"indices":16,"material":2,"mode":4},{"attributes":{"NORMAL":22,"POSITION":21,"TEXCOORD_0":23},"indices":20,"material":3,"mode":4}]}],"nodes":[{"extensions":{"S8S_v3d_node":{"frustumCulling":true,"groupNames":["Agent"],"hidden":false,"hidpiCompositing":false,"objectColor":[0.800000011920929,0.800000011920929,0.800000011920929,1.0],"objectIndex":0,"renderOrder":0,"useCastShadows":true,"useShadows":true}},"mesh":1,"name":"Retopo_H.003","scale":[0.982191801071167,1.0,1.0],"translation":[0.011004289612174034,0.7109503746032715,0.006876617204397917]},{"extensions":{"S8S_v3d_node":{"frustumCulling":true,"groupNames":["Agent"],"hidden":false,"hidpiCompositing":false,"objectColor":[0.800000011920929,0.800000011920929,0.800000011920929,1.0],"objectIndex":0,"renderOrder":0,"useCastShadows":true,"useShadows":true}},"mesh":2,"name":"Mesh1_Mesh1.073","rotation":[0.7071067690849304,0.0,-0.0,0.7071067690849304],"scale":[1.0682547092437744,1.0,1.0],"translation":[9.88636165857315e-05,-0.03723234310746193,-0.0]},{"extensions":{"S8S_v3d_node":{"frustumCulling":true,"groupNames":["Agent"],"hidden":false,"hidpiCompositing":false,"objectColor":[1.0,1.0,1.0,1.0],"objectIndex":0,"renderOrder":0,"useCastShadows":true,"useShadows":true}},"mesh":3,"name":"Mesh_0.011","translation":[-0.0011889641173183918,-0.44670113921165466,-0.06714487075805664]},{"extensions":{"S8S_v3d_node":{"frustumCulling":true,"groupNames":["Agent"],"hidden":false,"hidpiCompositing":false,"objectColor":[1.0,1.0,1.0,1.0],"objectIndex":0,"renderOrder":0,"useCastShadows":false,"useShadows":true}},"mesh":0,"name":"Glasses.008","scale":[0.9753581881523132,1.0,1.0],"translation":[0.0,0.4731035828590393,0.3278908431529999]},{"camera":0,"extensions":{"S8S_v3d_node":{"frustumCulling":true,"groupNames":[],"hidden":false,"hidpiCompositing":false,"objectColor":[0.0,0.0,0.0,0.0],"objectIndex":0,"renderOrder":0,"useCastShadows":true}},"name":"Camera.001","rotation":[1.685874053691805e-07,0.0,0.0,1.0],"scale":[1.0,0.9999998807907104,0.9999998807907104],"translation":[0.0,0.0,9.548297882080078]}],"samplers":[{}],"scene":0,"scenes":[{"extensions":{"S8S_v3d_scene":{"aaMethod":"AUTO","iblEnvironmentMode":"PMREM","physicallyCorrectLights":true,"pmremMaxTileSize":256,"shadowMap":{"esmDistanceScale":1.0,"renderReverseSided":false,"renderSingleSided":true,"type":"PCFPOISSON"},"worldMaterial":6}},"extras":{"animFrameRate":24,"coordSystem":"Z_UP_RIGHT"},"name":"Scene","nodes":[4,0,2,1,3]}],"textures":[{"extensions":{"S8S_v3d_texture":{"colorSpace":"srgb"}},"name":"Hair Final.001","sampler":0,"source":0},{"extensions":{"S8S_v3d_texture":{"colorSpace":"srgb"}},"name":"Glasses","sampler":0,"source":1},{"extensions":{"S8S_v3d_texture":{"colorSpace":"srgb"}},"name":"Roughness","sampler":0,"source":2},{"extensions":{"S8S_v3d_texture":{"colorSpace":"srgb"}},"name":"Face Final","sampler":0,"source":3},{"extensions":{"S8S_v3d_texture":{"colorSpace":"srgb"}},"name":"Cloth Final","sampler":0,"source":4},{"extensions":{"S8S_v3d_texture":{"colorSpace":"linear rec.709","source":5}},"name":"environment.hdr","sampler":0}]}
